<svg id="Capa_1" data-name="Capa 1" xmlns="http://www.w3.org/2000/svg" viewBox="0 0 296.16 167.89"><defs><style>.cls-1{fill:#3fb3de;}.cls-2{fill:#fff;}</style></defs><title>data_maintenance_isometric</title><path class="cls-1" d="M58,183.56a53.91,53.91,0,0,1-7.47-5,99.25,99.25,0,0,1-10.75-9.52A125.58,125.58,0,0,1,21,145,130.45,130.45,0,0,1,9,118.91,141.71,141.71,0,0,1,3.19,93.05,165,165,0,0,1,2,65.76,167.07,167.07,0,0,1,3.61,48.18c.67-4.74,1.33-9.48,2.45-14.13,1.33-5.52,4.9-8.15,10.56-8.21a77.35,77.35,0,0,1,9.11.87c4.16.44,8.33.95,12.49,1.43,2.27.27,4.54.55,6.81.79.76.09.87.36.42,1a76,76,0,0,0-5.84,9.37,103.17,103.17,0,0,0-5.78,13,109,109,0,0,0-4.15,13.88c-1.08,4.79-1.89,9.63-2.53,14.51a146.9,146.9,0,0,0-.87,23.25A122.87,122.87,0,0,0,28,120.56,132.49,132.49,0,0,0,31.85,137,126.2,126.2,0,0,0,38,153.29a114.11,114.11,0,0,0,11,19,109.91,109.91,0,0,0,8.53,10.58A6.29,6.29,0,0,1,58,183.56Z" transform="translate(-1.92 -16.05)"/><path class="cls-2" d="M182.86,109.56c-12.47,0-21.2-2.71-28.74-8.71a34.35,34.35,0,0,1-11.89-18.08,47.15,47.15,0,0,1,.34-26.07,31.86,31.86,0,0,1,7.34-12.76c6.84-7.47,15.56-11.06,25.53-12a41.73,41.73,0,0,1,18.35,2.33,40.65,40.65,0,0,1,13.65,8.32,32.73,32.73,0,0,1,10.17,17.87,48.37,48.37,0,0,1,.62,16.93,37.75,37.75,0,0,1-5.34,15.2,34.79,34.79,0,0,1-15.53,13.34C191.83,108.41,186,109.6,182.86,109.56ZM202.54,69.3c.15-3-1.14-7.57-3.68-11.67-5-8.06-12.21-12.1-21.85-11.07a21.73,21.73,0,0,0-14.8,7.9c-5.44,6.52-6.89,14.17-5.07,22.3,2,8.94,7.05,15.53,16.19,18.11,7.93,2.24,15.1.32,21.29-5C200.28,85,202.42,78.48,202.54,69.3Z" transform="translate(-1.92 -16.05)"/><path class="cls-2" d="M79.25,70.74c0-12.16,0-24.31,0-36.46,0-1.11.32-1.43,1.37-1.55,6.14-.72,12.27-1.62,18.48-1.39,6.72.25,13.35,1.06,19.53,3.93a24.56,24.56,0,0,1,13.4,15,30,30,0,0,1,1.59,14.5c-1.56,9.77-6.94,16.65-15.87,20.84-6.3,3-13,3.44-19.75,2.83-2-.18-2-.23-2,1.73v10.2a6.81,6.81,0,0,1-4.49,6.7c-3.72,1.53-7.66,1.66-11.61,1.73-.52,0-.68-.2-.63-.68,0-.25,0-.51,0-.76ZM96,60.5c0,4.29,0,8.58,0,12.86,0,.88.18,1.25,1.13,1.34a61.43,61.43,0,0,0,9.78.08,11.82,11.82,0,0,0,10.51-8.25,17.12,17.12,0,0,0-1.13-13.76,10.72,10.72,0,0,0-8.16-6c-3.62-.49-7.29-.2-10.93-.26-.92,0-1.22.29-1.21,1.25C96,52,96,56.25,96,60.5Z" transform="translate(-1.92 -16.05)"/><path class="cls-2" d="M59.33,182.75a42,42,0,0,1-4.87-5.62,90.51,90.51,0,0,1-10.25-16.59,118.93,118.93,0,0,1-8.63-23.91,134.84,134.84,0,0,1-3.5-24,131.26,131.26,0,0,1,.38-18.81,148,148,0,0,1,3.31-20.93,142.24,142.24,0,0,1,5.84-19.14,136.69,136.69,0,0,1,7.26-15.92,125.38,125.38,0,0,1,8.59-13.62L36.3,21.51a10.81,10.81,0,0,1,7.14-5.06c3.43-.82,6.8-.19,10.2.29,7.89,1.1,15.79,2.06,23.84,3.1l-2.74,3.93A191.24,191.24,0,0,0,53.59,63.88,175.37,175.37,0,0,0,45,93.72,154.67,154.67,0,0,0,42.26,117a122.7,122.7,0,0,0,2.5,29.67,105.61,105.61,0,0,0,7.84,23.38,88.56,88.56,0,0,0,6.54,11.73,8.37,8.37,0,0,1,.41.79Z" transform="translate(-1.92 -16.05)"/><path class="cls-2" d="M228.74,70.74q0-18.28,0-36.58c0-1,.21-1.37,1.3-1.34A33.51,33.51,0,0,1,239.56,34c3.89,1.25,5.77,3.68,5.77,7.9v51c0,1.65,0,1.65,1.69,1.65h18.24c3.78,0,5.69,1.48,6.92,5.09a26.58,26.58,0,0,1,1,8.41c0,.66-.26.78-.82.74s-1,0-1.53,0q-20.4,0-40.8,0c-1.09,0-1.29-.3-1.28-1.33Q228.77,89.1,228.74,70.74Z" transform="translate(-1.92 -16.05)"/><path class="cls-2" d="M281.1,70.74c0-12.15,0-24.31,0-36.47,0-1.21.36-1.47,1.48-1.44A31.94,31.94,0,0,1,292,34.06a7.28,7.28,0,0,1,5.41,7.26q0,33,0,66.06c0,1.06-.16,1.43-1.35,1.41-4.55-.09-9.1-.07-13.64,0-1,0-1.34-.23-1.34-1.31Q281.13,89.11,281.1,70.74Z" transform="translate(-1.92 -16.05)"/><path class="cls-2" d="M215.25,157.94,219,151c.16-.3.33-.59.48-.89s.48-.71,1-.6.38.59.44.94c.64,3.71,1.3,7.41,1.88,11.13.09.57.75,1.51-.42,1.74-1.82.37-2.38,0-2.61-1.25-.25-1.46-.5-2.91-.78-4.56-1.16,1.58-1.72,3.34-2.69,4.87-.29.45-.34,1.17-1,1.18s-.79-.71-1-1.16c-.87-1.58-1.69-3.2-2.69-5.12-.32,1.89-.65,3.46-.83,5.05-.09.83-.39,1.12-1.19,1a3,3,0,0,0-.89,0c-1,.17-1.23-.34-1.06-1.24.56-3.08,1.09-6.16,1.63-9.25.15-.87.28-1.75.39-2.63,0-.35,0-.69.49-.74a.78.78,0,0,1,.85.43c.58,1.07,1.18,2.14,1.76,3.22C213.51,154.66,214.32,156.19,215.25,157.94Z" transform="translate(-1.92 -16.05)"/><path class="cls-2" d="M223.58,127.36a7.34,7.34,0,0,1,7.26,6.92c0,3.91-3.87,7.13-7.31,7.07a6.94,6.94,0,0,1-7-7.1A6.81,6.81,0,0,1,223.58,127.36Zm3.63,7a3.7,3.7,0,0,0-3.6-3.8,3.83,3.83,0,0,0-3.89,3.69,3.87,3.87,0,0,0,3.73,3.89A3.73,3.73,0,0,0,227.21,134.35Z" transform="translate(-1.92 -16.05)"/><path class="cls-2" d="M99.19,127.36a7,7,0,1,1-.15,14,6.79,6.79,0,0,1-6.78-7A6.68,6.68,0,0,1,99.19,127.36Zm-.12,10.77a3.92,3.92,0,0,0,3.91-3.69,3.79,3.79,0,0,0-3.7-3.87,3.66,3.66,0,0,0-3.81,3.6A3.83,3.83,0,0,0,99.07,138.13Z" transform="translate(-1.92 -16.05)"/><path class="cls-2" d="M196.73,149.49a7,7,0,0,1,7,7,7,7,0,1,1-14,0A6.91,6.91,0,0,1,196.73,149.49Zm3.69,7a3.89,3.89,0,0,0-3.65-3.83,4,4,0,0,0-3.8,3.84,3.7,3.7,0,0,0,3.75,3.79A3.6,3.6,0,0,0,200.42,156.46Z" transform="translate(-1.92 -16.05)"/><path class="cls-2" d="M166.87,149.49a6.9,6.9,0,0,1,7,7,7,7,0,1,1-14,.19A6.87,6.87,0,0,1,166.87,149.49Zm-3.74,7a3.78,3.78,0,0,0,7.56,0,3.78,3.78,0,1,0-7.56,0Z" transform="translate(-1.92 -16.05)"/><path class="cls-2" d="M284.1,156.46a7,7,0,1,1,6.92,7.11A7,7,0,0,1,284.1,156.46Zm10.71.11a3.75,3.75,0,1,0-7.5-.07,3.75,3.75,0,0,0,3.66,3.76A3.67,3.67,0,0,0,294.81,156.57Z" transform="translate(-1.92 -16.05)"/><path class="cls-2" d="M271.23,156c0,2.19-.1,4.13,0,6,.11,1.59-.89,1.23-1.78,1.32-1.07.1-1.51-.19-1.48-1.38.07-3.78,0-7.56,0-11.34,0-.38-.25-.91.32-1.11a1.09,1.09,0,0,1,1.22.46q3.24,3.56,6.5,7.09l.62-.41c0-1.88.11-3.77,0-5.63-.11-1.37.56-1.38,1.56-1.39s1.75,0,1.72,1.44c-.1,3.7,0,7.4,0,11.09,0,.48.19,1.1-.44,1.33s-.94-.3-1.29-.64C275.92,160.66,273.68,158.42,271.23,156Z" transform="translate(-1.92 -16.05)"/><path class="cls-2" d="M184.36,134.68c0-2.23,0-4.13,0-6,0-.89.26-1.25,1.15-1.16a10.81,10.81,0,0,0,1.14,0c.62,0,.93.23.93.9q0,6,0,12.1c0,.34,0,.69-.41.82a1,1,0,0,1-1-.36c-2.19-2.22-4.39-4.44-6.57-6.67-.12-.11-.15-.31-.27-.58a2.44,2.44,0,0,0-.4,1.91c0,1.48,0,3,0,4.45,0,.78-.13,1.24-1,1.09a3.8,3.8,0,0,0-1,0c-.92.12-1.17-.3-1.16-1.17,0-3.77,0-7.55,0-11.33,0-.43-.25-1,.33-1.25s1,.16,1.44.55Z" transform="translate(-1.92 -16.05)"/><path class="cls-2" d="M96.46,156.45c0-1.91,0-3.82,0-5.73,0-.76.23-1.07,1-1.06,1.83.05,3.66,0,5.48,0a4.2,4.2,0,0,1,3.89,3.11,3.8,3.8,0,0,1-1.55,4.32c-.75.57-1.23,1-.44,2a23.15,23.15,0,0,1,1.73,3.23c.34.63.21.91-.52,1-2.19.23-2.43.11-3.41-1.82-.52-1-1.15-2-1.62-3a.81.81,0,0,0-1-.52c-.63.07-.34.58-.35.89,0,1.19,0,2.38,0,3.57,0,.66-.25.94-.9.89a5,5,0,0,0-1,0c-1,.15-1.34-.31-1.31-1.29C96.5,160.19,96.46,158.32,96.46,156.45Zm4.79-3.89c-.44.17-1.29-.36-1.51.27a3.91,3.91,0,0,0,0,2.37c.21.63,1,.24,1.6.26,1.6,0,2.49-.51,2.49-1.46S103.08,152.56,101.25,152.56Z" transform="translate(-1.92 -16.05)"/><path class="cls-2" d="M136.52,156.79c0-2,.09-3.84,0-5.63-.09-1.29.37-1.68,1.56-1.49a3.22,3.22,0,0,0,.76,0c.65,0,.92.27.92.92,0,4,0,8.06,0,12.1,0,.35,0,.72-.41.84s-.81-.19-1.1-.49q-3.27-3.3-6.52-6.62l-.64-.6c0,2.26-.08,4.31,0,6.36.06,1.17-.53,1.25-1.38,1.16s-1.84.44-1.81-1.15c.07-3.9,0-7.81,0-11.71,0-.34-.22-.81.33-1a1,1,0,0,1,1,.36C131.6,152.13,134,154.36,136.52,156.79Z" transform="translate(-1.92 -16.05)"/><path class="cls-2" d="M236.22,156.38c2.5,1.76,2.95,3.3,1.58,5.3a4.06,4.06,0,0,1-3.42,1.64c-1.48.07-3,0-4.46,0-.79,0-1.21-.22-1.2-1.16q.08-5.67,0-11.34c0-.93.34-1.18,1.16-1.17,1.49,0,3,0,4.46,0,2.75.13,4.52,2.64,3.52,4.89C237.51,155.36,236.76,155.73,236.22,156.38Zm-3,4c1,0,1.88-.11,1.84-1.27s-1-1.27-1.91-1.36c-1.24-.11-.93.72-1,1.39C232.12,160,232.2,160.65,233.24,160.4Zm-1.06-6.53c.1.53-.37,1.39.86,1.31.93-.06,1.76-.26,1.79-1.31s-.81-1.26-1.74-1.33C231.91,152.44,232.23,153.23,232.18,153.87Z" transform="translate(-1.92 -16.05)"/><path class="cls-2" d="M90.36,159.3v.26c0,3,0,3-2.86,3.68-3.09.7-5.89.1-7.83-2.53a6.77,6.77,0,0,1-.44-7.67,7,7,0,0,1,10.51-2c.55.42.63.78.1,1.33-.86.87-1.5,1.69-2.92.65-1.19-.87-3.24-.22-4.23,1a4.19,4.19,0,0,0-.32,4.65,4.09,4.09,0,0,0,4.14,1.57c.39-.11.68-.25.66-.76s-.42-.44-.73-.43c-1.4,0-.75-1-.86-1.64s.11-1.16,1-1.07a6.59,6.59,0,0,0,.89,0C90.36,156.31,90.36,156.31,90.36,159.3Z" transform="translate(-1.92 -16.05)"/><path class="cls-2" d="M146.09,134.35c0-1.91,0-3.82,0-5.73,0-.8.17-1.16,1.05-1.14q3.38.06,6.75,0c1.41,0,1,1,1,1.68s.06,1.36-1,1.29c-1.31-.07-2.64,0-3.95,0-1.05-.06-.76.64-.77,1.17s-.24,1.23.79,1.14,2,0,2.93,0c.81,0,1,.28,1,1,0,2.34.17,1.89-1.86,1.93a8.68,8.68,0,0,1-1.53,0c-1.14-.18-1.42.28-1.38,1.38,0,.86.2,1.19,1.12,1.13,1.23-.09,2.47,0,3.7,0,.73,0,.95.3,1,1,.09,2,.11,2-1.93,2s-4,0-6,0c-.73,0-.95-.23-.93-.95C146.11,138.26,146.09,136.31,146.09,134.35Z" transform="translate(-1.92 -16.05)"/><path class="cls-2" d="M144.47,156.54a6.59,6.59,0,0,1,3.34-6,6.89,6.89,0,0,1,7.57.1c.45.28,1.26.61.78,1.46-.62,1.1-1.68,1.63-2.37,1.21a3.66,3.66,0,0,0-4.94.51,4.09,4.09,0,0,0-.19,5.05,3.85,3.85,0,0,0,4.92.95c.34-.18.67-.75,1.07-.39a5.33,5.33,0,0,1,1.63,1.87c.15.39-.23.57-.5.78a6.69,6.69,0,0,1-7.39.78A6.6,6.6,0,0,1,144.47,156.54Z" transform="translate(-1.92 -16.05)"/><path class="cls-2" d="M208.24,127.36a6.34,6.34,0,0,1,4.36,1.42c.53.42.58.78.13,1.24a10.42,10.42,0,0,0-.81.82c-.47.61-.82.69-1.53.16a3.73,3.73,0,0,0-4.37.14,4,4,0,0,0-1.2,4.47,3.8,3.8,0,0,0,3.73,2.52,3.86,3.86,0,0,0,1.89-.65c.74-.45,1.78.06,2.43,1.2.47.82-.22,1.13-.73,1.47a7.05,7.05,0,0,1-9.48-1.44,7.17,7.17,0,0,1,.72-9.56A6.4,6.4,0,0,1,208.24,127.36Z" transform="translate(-1.92 -16.05)"/><path class="cls-2" d="M159.1,132.9c0-1.51,1.36-3.71,4-4.89a6.9,6.9,0,0,1,7.23.62c.88.62.73,1,.08,1.65s-1.24,1.3-2.45.56a3.45,3.45,0,0,0-4.63,1,4.2,4.2,0,0,0,.19,5.06,3.58,3.58,0,0,0,4.81.57c1.53-1,1.77.66,2.42,1.23s-.2,1.14-.63,1.42a6.69,6.69,0,0,1-7,.55C160.41,139.37,159.1,137.15,159.1,132.9Z" transform="translate(-1.92 -16.05)"/><path class="cls-2" d="M79.25,134.27c0-2,0-3.9,0-5.85,0-.64.18-1,.85-.93a45.45,45.45,0,0,1,5,.12c2.51.38,3.83,2.11,3.66,4.86a4.17,4.17,0,0,1-4.12,3.72c-2.12.09-2.12.09-2.12,2.26v.5c0,2.3-.35,2.57-2.65,2.21-.67-.11-.55-.51-.56-.91Zm3.21-2.49c0,.8-.23,1.64,1.13,1.47,1-.11,1.93-.07,2-1.36.07-1-.65-1.38-2.2-1.48C82.15,130.32,82.49,131.13,82.46,131.78Z" transform="translate(-1.92 -16.05)"/><path class="cls-2" d="M252.32,163.34c-1.7,0-1.72,0-1-1.57q2.63-5.76,5.3-11.49c.15-.32.22-.77.73-.78s.6.33.77.7c1.82,3.94,3.65,7.89,5.5,11.82.44.94.37,1.34-.83,1.35s-2.28,0-2.58-1.51c-.1-.51-.53-.58-1-.57-.85,0-1.7.05-2.55,0-1.15-.08-2.12-.09-2.46,1.41C254,163.57,253,163.31,252.32,163.34Zm3.85-4.75c.84,0,1.85.38,2.3-.18s-.46-1.25-.69-1.91a7.84,7.84,0,0,0-.35-.72A10.12,10.12,0,0,0,256.17,158.59Z" transform="translate(-1.92 -16.05)"/><path class="cls-2" d="M122,163.34c-.91.23-1.6-.16-1.88-1.29-.16-.61-.62-.81-1.26-.77a16.7,16.7,0,0,1-2.55,0c-1.09-.08-1.95,0-2.26,1.34-.14.67-2.61,1-3.21.61-.35-.26-.14-.5,0-.76l5-10.82c.21-.45.41-.92.63-1.37s.22-.75.72-.79.63.35.78.69q1.94,4.13,3.85,8.26c.48,1,.94,2.07,1.45,3.09C124.13,163.25,124.09,163.34,122,163.34Zm-6.12-4.75c1,0,2,.37,2.43-.16s-.44-1.24-.74-1.88c-.12-.24-.06-.62-.49-.68Z" transform="translate(-1.92 -16.05)"/><path class="cls-2" d="M110.5,134.32c0-1.87,0-3.74,0-5.6,0-1,.26-1.36,1.22-1.24a1.74,1.74,0,0,0,.51,0c1.13-.17,1.57.21,1.52,1.44-.1,2.72,0,5.44,0,8.15,0,.79.15,1.15,1,1.08s2,0,2.93,0c.74,0,.92.26.92,1,0,2,0,2-2,2-1.66,0-3.32,0-5,0-.87,0-1.19-.19-1.16-1.11C110.55,138.14,110.5,136.23,110.5,134.32Z" transform="translate(-1.92 -16.05)"/><path class="cls-2" d="M134.86,135.79c0-1.49,0-3,0-4.46,0-.74-.22-1-.93-.9a1.61,1.61,0,0,1-.38,0c-1.71,0-2.24-.77-1.77-2.47.12-.47.43-.46.77-.46,2.59,0,5.18,0,7.77,0,1.49,0,.76,1.21.9,1.91s-.24,1-1,1c-2.24,0-2.24.06-2.24,2.25,0,2.47,0,4.93,0,7.39,0,.82-.19,1.09-1,1.08-2.11,0-2.11,0-2.11-2.07Z" transform="translate(-1.92 -16.05)"/><path class="cls-2" d="M178.49,156.41c0-1.95,0-3.91,0-5.86,0-.66.19-.94.86-.88a4.87,4.87,0,0,0,1,0c1-.12,1.33.25,1.3,1.27-.07,2.8,0,5.6,0,8.4,0,.85.25,1.14,1.08,1.07.68-.06,1.36,0,2,0,1.76,0,2.29.73,1.81,2.46-.13.44-.4.49-.76.49-2.16,0-4.33,0-6.49,0-.74,0-.81-.38-.8-1C178.5,160.39,178.49,158.4,178.49,156.41Z" transform="translate(-1.92 -16.05)"/><path class="cls-2" d="M243.54,156.45c0-1.9.05-3.81,0-5.71,0-.87.27-1.09,1.08-1.07,2.49.05,2.13-.25,2.14,2,0,3.47-.06,6.95,0,10.42,0,1.39-.75,1.23-1.61,1.21s-1.73.28-1.65-1.17C243.62,160.27,243.54,158.36,243.54,156.45Z" transform="translate(-1.92 -16.05)"/><path class="cls-2" d="M193.41,134.33c0-1.86.07-3.73,0-5.6,0-1,.35-1.36,1.3-1.25a5.3,5.3,0,0,0,.89,0c.74,0,1,.23,1,1q-.06,5.73,0,11.46c0,.87-.25,1.19-1.16,1.17-2.05,0-2.05,0-2.05-2Z" transform="translate(-1.92 -16.05)"/><path class="cls-2" d="M123.64,134.38c0-1.95,0-3.9,0-5.86,0-.74.16-1.14,1-1a2.29,2.29,0,0,0,.64,0c1.18-.19,1.6.23,1.57,1.5-.08,3.65-.06,7.3,0,10.95,0,.94-.23,1.36-1.2,1.21a3.32,3.32,0,0,0-.89,0c-.82.11-1.11-.17-1.08-1C123.68,138.21,123.64,136.29,123.64,134.38Z" transform="translate(-1.92 -16.05)"/><path class="cls-2" d="M168.1,177.13c0,1.94,0,3.89,0,5.84,0,.33.19.81-.45.84s-.58-.44-.58-.86v-7.64c0-.32-.11-.73.32-.86s.58.23.79.49a81.69,81.69,0,0,0,5.32,6.22v-5.11c0-.34,0-.68,0-1s.12-.47.45-.48.56.15.56.51q0,4.19,0,8.39c0,.22-.08.45-.34.45s-.52-.28-.69-.5c-1.13-1.42-2.24-2.86-3.36-4.28-.56-.72-1.16-1.4-1.73-2.1Z" transform="translate(-1.92 -16.05)"/><path class="cls-2" d="M85.89,176.57c0,2.37,0,4.36,0,6.35,0,.36.25.91-.51.89s-.5-.56-.5-.93c0-2.42,0-4.84,0-7.26,0-.38-.29-.93.26-1.12s.77.4,1,.73c1.57,1.94,3.11,3.89,4.66,5.84a3.51,3.51,0,0,0,.53.33v-3.26c0-.77-.05-1.54,0-2.3,0-.45-.4-1.27.53-1.26s.46.77.47,1.2c0,1.74,0,3.48,0,5.23,0,.68,0,1.36,0,2,0,.31.12.74-.33.85s-.49-.25-.67-.48C89.64,181.22,87.88,179,85.89,176.57Z" transform="translate(-1.92 -16.05)"/><path class="cls-2" d="M195.84,176.7c0,2.24,0,4.22,0,6.2,0,.37.21.91-.52.9s-.5-.54-.5-.91q0-3.75,0-7.51c0-.3-.21-.74.19-.9s.68.23.92.52l4.73,5.94a1.65,1.65,0,0,1,.19.47l.4-.18v-5c0-.34,0-.68,0-1s0-.68.5-.68.53.28.53.65c0,2.67,0,5.34,0,8,0,.28.1.63-.32.72s-.5-.24-.68-.47l-5-6.22C196.22,177.11,196.12,177,195.84,176.7Z" transform="translate(-1.92 -16.05)"/><path class="cls-2" d="M163.33,179.21a4.51,4.51,0,0,1-4.57,4.73,4.78,4.78,0,0,1-4.9-4.75,4.89,4.89,0,0,1,4.94-4.77A4.59,4.59,0,0,1,163.33,179.21Zm-1.05.08a3.61,3.61,0,0,0-3.31-3.77,3.82,3.82,0,0,0-4.05,3.63,4,4,0,0,0,3.59,3.76A3.67,3.67,0,0,0,162.28,179.29Z" transform="translate(-1.92 -16.05)"/><path class="cls-2" d="M232.31,179.1c0-1.27,0-2.54,0-3.82,0-.54.17-.76.73-.74,1.06,0,2.13-.07,3.18,0a2.7,2.7,0,0,1,2.53,2,2.5,2.5,0,0,1-1,3c-.63.43-.73.74-.31,1.37a18.18,18.18,0,0,1,1,1.9c.15.3.6.7,0,.92a.82.82,0,0,1-1.17-.41c-.33-.78-.8-1.49-1.11-2.27-.49-1.21-1.51-.78-2.3-.71s-.35.87-.44,1.35a7.22,7.22,0,0,0,0,1.14c0,.44.17,1-.62.95s-.53-.5-.54-.89C232.3,181.65,232.31,180.38,232.31,179.1Zm1.16-1.79c.08.9-.52,2.16,1.37,2s2.88-.63,2.88-1.87-1-1.74-2.9-1.9C233.24,175.41,233.39,176.31,233.47,177.31Z" transform="translate(-1.92 -16.05)"/><path class="cls-2" d="M274.91,179.18c0-1.23,0-2.47,0-3.69,0-.69.14-1.05.9-1,1.52.2,3.14-.45,4.55.66a2.67,2.67,0,0,1,.11,4.24c-.83.58-.72,1-.32,1.72a17.9,17.9,0,0,1,.9,1.67c.13.28.61.71,0,.93a.78.78,0,0,1-1.13-.45c-.29-.74-.76-1.42-1.05-2.16-.5-1.26-1.55-.86-2.4-.78s-.36.88-.44,1.35a7.28,7.28,0,0,0,0,1.4c0,.46-.07.72-.61.69s-.49-.33-.49-.68C274.92,181.81,274.91,180.49,274.91,179.18ZM276,177c0,2.54-.28,2.3,1.44,2.33,1.94,0,2.86-.62,2.82-1.9s-1-1.65-2.83-1.85S276,176.36,276,177Z" transform="translate(-1.92 -16.05)"/><path class="cls-2" d="M290.12,183.81c-.64,0-.68-.3-.48-.75,1.25-2.73,2.47-5.46,3.72-8.18.3-.66.66-.58.94,0q1.83,4.09,3.62,8.21c.09.19.34.5-.05.63s-.92.19-1-.26c-.3-2.23-1.9-1.92-3.47-2a2.18,2.18,0,0,0-2.62,1.69C290.68,183.58,290.55,183.87,290.12,183.81Zm1.93-3.2c1.11,0,2,0,3,0,.51,0,.6-.19.4-.61-.51-1.09-1-2.18-1.58-3.4A26.43,26.43,0,0,0,292.05,180.61Z" transform="translate(-1.92 -16.05)"/><path class="cls-2" d="M133.88,178.08c0,.93.05,1.87,0,2.8a3.29,3.29,0,0,1-3.29,3.06A3.24,3.24,0,0,1,127,181.1c-.14-2,0-4-.07-6,0-.44.18-.57.61-.57s.48.36.48.7V180c0,1.8,1,3,2.43,3s2.39-1.15,2.41-3c0-1.49,0-3,0-4.46,0-.37-.23-.9.51-.92s.57.47.57.86c0,.89,0,1.79,0,2.68Z" transform="translate(-1.92 -16.05)"/><path class="cls-2" d="M271.82,183.34c0,.41-.18.44-.39.46a.87.87,0,0,1-.91-.51c-.38-.57-.28-1.63-1.08-1.73a18.53,18.53,0,0,0-3.94,0c-.57.06-.63.82-.86,1.3s-.13.91-.72.93c-.4,0-.94.13-.59-.64,1.25-2.77,2.47-5.55,3.69-8.33a.53.53,0,0,1,.46-.37c.39,0,.44.3.56.58,1.08,2.42,2.17,4.85,3.27,7.27C271.48,182.68,271.68,183.05,271.82,183.34Zm-4.29-7-1.82,4.19h3.48C268.9,179.16,268.07,178,267.53,176.39Z" transform="translate(-1.92 -16.05)"/><path class="cls-2" d="M142.11,183.94a4.61,4.61,0,0,1-4.44-3.33,4.82,4.82,0,0,1,1.64-5.24,4.7,4.7,0,0,1,5.46-.15c.43.28.87.51.51,1.05s-.7.15-1.08-.07c-1.77-1-3.14-.89-4.52.4a3.83,3.83,0,0,0-.64,4.24,3.47,3.47,0,0,0,5.05,1.44c.4-.26.82-.84,1.23-.16s-.27.86-.68,1.15A4,4,0,0,1,142.11,183.94Z" transform="translate(-1.92 -16.05)"/><path class="cls-2" d="M190.48,178.38c-.18,1.12.33,2.49-.4,3.78a3.38,3.38,0,0,1-3.86,1.7,3,3,0,0,1-2.62-3c0-1.87,0-3.74,0-5.61,0-.41,0-.76.58-.73s.52.45.52.81c0,1.57,0,3.14,0,4.71s.89,2.78,2.26,2.84,2.45-1,2.5-2.76c.05-1.57,0-3.15,0-4.72,0-.41-.12-.89.57-.87s.44.5.44.82C190.5,176.31,190.48,177.24,190.48,178.38Z" transform="translate(-1.92 -16.05)"/><path class="cls-2" d="M245,183.94a3.85,3.85,0,0,1-2.58-.9c-.3-.23-.55-.44-.24-.81s.5-.51.93-.12a2.69,2.69,0,0,0,2.07.8,1.49,1.49,0,0,0,1.45-1c.25-.69-.15-1.1-.64-1.5a8.11,8.11,0,0,0-1.9-1,2.71,2.71,0,0,1-1.93-2.44,2.31,2.31,0,0,1,1.48-2.3A3.56,3.56,0,0,1,247,175c.3.18.45.37.24.71s-.42.51-.81.26a2.46,2.46,0,0,0-1.17-.44c-.86-.06-1.67,0-2,1s.51,1.44,1.16,1.86,1.23.56,1.82.88c1.37.75,1.85,1.67,1.55,2.85A2.8,2.8,0,0,1,245,183.94Z" transform="translate(-1.92 -16.05)"/><path class="cls-2" d="M99,174.42a3.19,3.19,0,0,1,1.88.5c.25.15.67.3.44.76s-.52.46-.94.21a2.88,2.88,0,0,0-1.56-.4,1.44,1.44,0,0,0-1.47,1,1.3,1.3,0,0,0,.7,1.61c.75.46,1.58.78,2.35,1.19a2.4,2.4,0,0,1,1.42,2.82,2.66,2.66,0,0,1-2.6,1.84,3.73,3.73,0,0,1-2.71-.85c-.32-.26-.6-.47-.25-.92s.6-.28.92,0a2.63,2.63,0,0,0,2.34.7,1.33,1.33,0,0,0,1.14-1.05,1.22,1.22,0,0,0-.54-1.3A8.55,8.55,0,0,0,98,179.4a2.59,2.59,0,0,1-1.75-3.13A2.56,2.56,0,0,1,99,174.42Z" transform="translate(-1.92 -16.05)"/><path class="cls-2" d="M222.62,179.1c0-1.23,0-2.47,0-3.7,0-.63.11-.9.83-.87,1.35.06,2.71,0,4.07,0,.32,0,.71-.1.74.44s-.31.59-.73.59c-.93,0-1.87.07-2.8,0s-1.19.28-1.07,1.14a4.83,4.83,0,0,1,0,1.14c-.06.6.14.84.77.8.85,0,1.7,0,2.55,0,.29,0,.62,0,.64.4s-.22.59-.63.58-.76,0-1.15,0c-2.25,0-2.59.44-2.19,2.69.09.52.37.48.71.48h3.18c.44,0,.76.08.72.63s-.46.39-.75.4c-1.36,0-2.72,0-4.08,0-.75,0-.82-.3-.8-.9C222.64,181.65,222.62,180.37,222.62,179.1Z" transform="translate(-1.92 -16.05)"/><path class="cls-2" d="M215.16,181.91c1-2.15,1.82-4.06,2.67-6a8.24,8.24,0,0,0,.35-.81.71.71,0,0,1,1-.54c.61.22.16.65,0,.93-1.14,2.62-2.31,5.24-3.47,7.86-.13.29-.29.56-.63.54s-.39-.4-.51-.66L211,175.42c-.14-.31-.36-.67.09-.84a.69.69,0,0,1,.95.37c.52,1.16,1.07,2.3,1.58,3.45S214.58,180.57,215.16,181.91Z" transform="translate(-1.92 -16.05)"/><path class="cls-2" d="M258.2,179.65c0-1-.06-2.05,0-3.06s-.29-1.12-1.08-1c-.29,0-.59,0-.89,0a.51.51,0,0,1-.59-.52c0-.39.2-.51.55-.51,1.66,0,3.32,0,5,0,.37,0,.55.14.58.5s-.29.5-.66.54c-1.75.19-1.75.2-1.75,2s0,3.49,0,5.23c0,.38.33,1-.5,1s-.63-.64-.64-1.09C258.17,181.69,258.2,180.67,258.2,179.65Z" transform="translate(-1.92 -16.05)"/><path class="cls-2" d="M106.8,179.59c0-1.06,0-2.13,0-3.18,0-.68-.2-.94-.86-.83a1,1,0,0,1-.38,0c-.45-.14-1.28.4-1.29-.51s.83-.47,1.27-.49c1.36-.06,2.72,0,4.07,0,.33,0,.71-.06.75.45s-.37.65-.76.57c-1.62-.35-1.73.55-1.68,1.81.09,1.82,0,3.65,0,5.47,0,.46.1,1-.65,1s-.49-.55-.5-.92C106.79,181.79,106.8,180.69,106.8,179.59Z" transform="translate(-1.92 -16.05)"/><path class="cls-2" d="M120.32,179.56c0-1-.07-1.95,0-2.92s-.28-1.19-1.13-1.07a7,7,0,0,1-1,0c-.33,0-.42-.2-.42-.49s.08-.52.41-.52h5.33c.34,0,.4.26.39.53s-.09.41-.35.45l-.25,0c-.62.07-1.52-.29-1.79.18a4.47,4.47,0,0,0-.15,2.09c0,1.66,0,3.31,0,5,0,.37.32,1-.52,1s-.47-.67-.48-1C120.29,181.68,120.32,180.62,120.32,179.56Z" transform="translate(-1.92 -16.05)"/><path class="cls-2" d="M207.71,179.13c0,1.32,0,2.63,0,3.94,0,.42,0,.75-.59.74s-.59-.33-.59-.75q0-3.88,0-7.75c0-.43.07-.76.61-.77s.56.4.56.78Z" transform="translate(-1.92 -16.05)"/><path class="cls-2" d="M150.31,179.29c0,1.27,0,2.54,0,3.81,0,.45-.08.71-.61.72s-.56-.35-.56-.75v-7.73c0-.36-.09-.78.52-.8s.64.39.64.83Z" transform="translate(-1.92 -16.05)"/><path class="cls-2" d="M251.44,179.09V175.4c0-.42-.09-.88.6-.86s.57.39.57.78c0,2.59,0,5.18,0,7.76,0,.45-.09.73-.63.73s-.53-.39-.53-.77Z" transform="translate(-1.92 -16.05)"/><path class="cls-2" d="M113.44,179.13V175.3c0-.4,0-.76.56-.76s.59.37.59.76q0,3.88,0,7.78c0,.42,0,.74-.59.74s-.58-.32-.58-.74C113.45,181.76,113.44,180.44,113.44,179.13Z" transform="translate(-1.92 -16.05)"/><path class="cls-2" d="M79.37,179.28c0-1.31,0-2.62,0-3.93,0-.46,0-.85.67-.81s.49.46.5.82c0,2.58,0,5.15,0,7.73,0,.43,0,.73-.58.72s-.6-.3-.59-.73c0-1.27,0-2.54,0-3.8Z" transform="translate(-1.92 -16.05)"/><path class="cls-2" d="M149.13,126.5c-.62,0-.57-.53-.75-.82a.62.62,0,0,1,.27-1c.91-.52,1.81-1.06,2.69-1.62.69-.43,1-.07,1.25.51s.65,1-.22,1.4C151.26,125.5,150.16,126,149.13,126.5Z" transform="translate(-1.92 -16.05)"/><path class="cls-2" d="M286.46,179.22c0,1.27,0,2.54,0,3.8,0,.37.07.78-.54.79s-.55-.36-.55-.75v-7.74c0-.37-.07-.77.53-.78s.56.37.56.75C286.47,176.6,286.46,177.91,286.46,179.22Z" transform="translate(-1.92 -16.05)"/><path class="cls-2" d="M160.13,172.44c-.1.64-.68.61-1.08.72s-1.17.84-1.42.28c-.36-.77.69-.83,1.14-1.19a1.87,1.87,0,0,1,.68-.33C159.9,171.78,160,172.1,160.13,172.44Z" transform="translate(-1.92 -16.05)"/><path class="cls-2" d="M59.61,183a.24.24,0,0,1-.28-.22l.22-.15.11.32Z" transform="translate(-1.92 -16.05)"/><path class="cls-2" d="M59.66,182.92l.2.21-.08.08-.17-.24Z" transform="translate(-1.92 -16.05)"/></svg>